<svg width="65" height="35" viewBox="0 0 65 35" fill="none" xmlns="http://www.w3.org/2000/svg">
<g id="Group 4">
<circle id="Ellipse 1" cx="17.2604" cy="17.2599" r="16.7599" fill="white" stroke="black"/>
<circle id="Ellipse 1_2" cx="47.7407" cy="17.2599" r="16.7599" fill="white" stroke="black"/>
<path id="Ellipse 2" d="M47.0005 29.9475C53.0756 29.9475 58.0005 25.0226 58.0005 18.9475C58.0005 16.7091 57.3319 14.6269 56.1836 12.8897C52.5169 12.3566 43.7836 11.5062 38.1836 12.369C36.8124 14.2037 36.0005 16.4808 36.0005 18.9475C36.0005 25.0226 40.9254 29.9475 47.0005 29.9475Z" fill="#0A0707"/>
<path id="Ellipse 2_2" d="M14.8174 29C20.8925 29 25.8174 24.0751 25.8174 18C25.8174 15.7616 25.1488 13.6794 24.0005 11.9422C20.3338 11.4091 11.6005 10.5587 6.00049 11.4215C4.62931 13.2562 3.81738 15.5333 3.81738 18C3.81738 24.0751 8.74225 29 14.8174 29Z" fill="#0A0707"/>
<path id="Vector 3410" d="M31.5005 13.5C36.3338 12.1667 49.2005 11 64.0005 15" stroke="black" stroke-linecap="round"/>
<path id="Vector 3410_2" d="M31.2425 13.423C18.0815 10.098 6.88616 10.853 1.50061 12" stroke="black" stroke-linecap="round"/>
<path id="$" d="M45.2826 20.8485C44.7973 20.6325 44.3574 20.4206 43.9631 20.2129C43.5698 19.9937 43.2364 19.7456 42.9631 19.4685C42.6898 19.1913 42.4832 18.8743 42.3433 18.5174C42.2159 18.1502 42.1747 17.7161 42.22 17.2153C42.2899 16.4413 42.5876 15.8141 43.1129 15.3337C43.6393 14.842 44.3551 14.5394 45.2604 14.4261L45.3854 13.0432C45.4899 13.0297 45.6518 13.0156 45.8711 13.001C46.0905 12.9864 46.314 12.9894 46.5416 13.01C46.9855 13.0501 47.3255 13.1611 47.5615 13.3431C47.7985 13.5137 47.8944 13.8494 47.8492 14.3502L47.8291 14.5722C48.5266 14.727 49.0736 14.96 49.47 15.2712C49.8779 15.5835 50.0602 15.9786 50.017 16.4567C49.9903 16.7526 49.8989 17.0025 49.7427 17.2065C49.5876 17.399 49.4067 17.5605 49.1998 17.691C48.9638 17.509 48.6403 17.3421 48.2295 17.1902C47.8197 17.027 47.3643 16.9227 46.8635 16.8775C46.3513 16.8312 45.969 16.8713 45.7166 16.9976C45.4653 17.1126 45.3298 17.2782 45.3103 17.4945C45.2948 17.6652 45.356 17.8142 45.4937 17.9414C45.6324 18.0572 45.8456 18.174 46.1333 18.2918L47.012 18.6638C48.051 19.1019 48.831 19.6142 49.3517 20.2006C49.8849 20.7766 50.1104 21.5199 50.0281 22.4305C49.9582 23.2045 49.6538 23.8425 49.115 24.3446C48.5773 24.8354 47.8273 25.1348 46.8651 25.243L46.7417 26.6088C46.6372 26.6224 46.4753 26.6364 46.2559 26.651C46.0366 26.6656 45.8131 26.6627 45.5854 26.6421C45.1415 26.602 44.8016 26.4909 44.5656 26.309C44.3285 26.1384 44.2326 25.8027 44.2779 25.3019L44.2933 25.1311C43.8876 25.0486 43.5187 24.9407 43.1865 24.8074C42.8657 24.6751 42.5873 24.518 42.3512 24.336C42.1266 24.1551 41.9558 23.9503 41.8387 23.7217C41.7217 23.4931 41.6755 23.2422 41.7002 22.969C41.73 22.6389 41.8519 22.3688 42.066 22.1587C42.2811 21.9371 42.5081 21.774 42.7471 21.6694C43.0431 21.9486 43.4106 22.1998 43.8494 22.4231C44.2997 22.6473 44.7979 22.7842 45.3443 22.8335C45.902 22.8839 46.3024 22.834 46.5455 22.6838C46.7886 22.5337 46.9204 22.3448 46.9409 22.1171C46.9615 21.8895 46.8859 21.7105 46.714 21.5802C46.5432 21.4386 46.2979 21.2959 45.9781 21.1523L45.2826 20.8485Z" fill="white"/>
<path id="$_2" d="M12.8805 19.8485C12.3952 19.6325 11.9553 19.4206 11.561 19.2129C11.1677 18.9937 10.8343 18.7456 10.561 18.4685C10.2877 18.1913 10.0811 17.8743 9.94123 17.5174C9.81376 17.1502 9.77264 16.7161 9.81789 16.2153C9.88782 15.4413 10.1855 14.8141 10.7108 14.3337C11.2372 13.842 11.953 13.5394 12.8583 13.4261L12.9833 12.0432C13.0878 12.0297 13.2497 12.0156 13.469 12.001C13.6884 11.9864 13.9119 11.9894 14.1395 12.01C14.5834 12.0501 14.9234 12.1611 15.1594 12.3431C15.3964 12.5137 15.4923 12.8494 15.4471 13.3502L15.427 13.5722C16.1245 13.727 16.6715 13.96 17.0679 14.2712C17.4758 14.5835 17.6581 14.9786 17.6149 15.4567C17.5882 15.7526 17.4968 16.0025 17.3406 16.2065C17.1855 16.399 17.0046 16.5605 16.7977 16.691C16.5617 16.509 16.2382 16.3421 15.8274 16.1902C15.4176 16.027 14.9622 15.9227 14.4614 15.8775C13.9492 15.8312 13.5669 15.8713 13.3145 15.9976C13.0632 16.1126 12.9277 16.2782 12.9082 16.4945C12.8927 16.6652 12.9539 16.8142 13.0916 16.9414C13.2303 17.0572 13.4435 17.174 13.7312 17.2918L14.6099 17.6638C15.6489 18.1019 16.4289 18.6142 16.9496 19.2006C17.4828 19.7766 17.7083 20.5199 17.626 21.4305C17.5561 22.2045 17.2517 22.8425 16.7129 23.3446C16.1752 23.8354 15.4252 24.1348 14.463 24.243L14.3396 25.6088C14.2351 25.6224 14.0732 25.6364 13.8538 25.651C13.6345 25.6656 13.411 25.6627 13.1833 25.6421C12.7394 25.602 12.3995 25.4909 12.1635 25.309C11.9264 25.1384 11.8305 24.8027 11.8758 24.3019L11.8912 24.1311C11.4855 24.0486 11.1166 23.9407 10.7844 23.8074C10.4636 23.6751 10.1852 23.518 9.94914 23.336C9.72451 23.1551 9.55367 22.9503 9.43662 22.7217C9.31957 22.4931 9.27339 22.2422 9.29807 21.969C9.32789 21.6389 9.44983 21.3688 9.6639 21.1587C9.87899 20.9371 10.106 20.774 10.345 20.6694C10.641 20.9486 11.0085 21.1998 11.4473 21.4231C11.8976 21.6473 12.3958 21.7842 12.9422 21.8335C13.4999 21.8839 13.9003 21.834 14.1434 21.6838C14.3865 21.5337 14.5183 21.3448 14.5388 21.1171C14.5594 20.8895 14.4838 20.7105 14.3119 20.5802C14.1411 20.4386 13.8958 20.2959 13.576 20.1523L12.8805 19.8485Z" fill="white"/>
</g>
</svg>
