<svg width="65" height="35" viewBox="0 0 65 35" fill="none" xmlns="http://www.w3.org/2000/svg">
<g id="Group 4">
<circle id="Ellipse 1" cx="17.2601" cy="17.2599" r="16.7599" fill="white" stroke="black"/>
<circle id="Ellipse 1_2" cx="47.7405" cy="17.2599" r="16.7599" fill="white" stroke="black"/>
<g id="Mask group">
<mask id="mask0_542_377" style="mask-type:alpha" maskUnits="userSpaceOnUse" x="36" y="11" width="24" height="20">
<g id="Subtract">
<mask id="path-3-inside-1_542_377" fill="white">
<path fill-rule="evenodd" clip-rule="evenodd" d="M38.3143 12.189C37.1527 13.7047 36.3655 15.5236 36.1021 17.5352C35.279 23.8206 39.881 29.6059 46.3809 30.4571C52.8808 31.3083 58.8173 26.903 59.6404 20.6176C59.9722 18.0834 59.4222 15.6306 58.2215 13.5497C48.7867 10.5523 43.1617 11.4358 39.5541 12.0025C39.1116 12.072 38.6994 12.1367 38.3143 12.189Z"/>
</mask>
<path fill-rule="evenodd" clip-rule="evenodd" d="M38.3143 12.189C37.1527 13.7047 36.3655 15.5236 36.1021 17.5352C35.279 23.8206 39.881 29.6059 46.3809 30.4571C52.8808 31.3083 58.8173 26.903 59.6404 20.6176C59.9722 18.0834 59.4222 15.6306 58.2215 13.5497C48.7867 10.5523 43.1617 11.4358 39.5541 12.0025C39.1116 12.072 38.6994 12.1367 38.3143 12.189Z" fill="#FFFF22"/>
<path d="M38.3143 12.189L38.18 11.198L37.7714 11.2534L37.5206 11.5806L38.3143 12.189ZM58.2215 13.5497L59.0877 13.0499L58.8939 12.714L58.5243 12.5966L58.2215 13.5497ZM39.5541 12.0025L39.3989 11.0146L39.5541 12.0025ZM37.0937 17.665C37.3335 15.8335 38.0495 14.1785 39.108 12.7973L37.5206 11.5806C36.2558 13.2309 35.3976 15.2138 35.1106 17.4053L37.0937 17.665ZM46.5107 29.4656C40.5268 28.6819 36.3463 23.3717 37.0937 17.665L35.1106 17.4053C34.2117 24.2694 39.2352 30.5299 46.2511 31.4486L46.5107 29.4656ZM58.6488 20.4877C57.9015 26.1944 52.4947 30.2492 46.5107 29.4656L46.2511 31.4486C53.2669 32.3674 59.733 27.6115 60.6319 20.7474L58.6488 20.4877ZM57.3554 14.0494C58.4514 15.9491 58.9508 18.1817 58.6488 20.4877L60.6319 20.7474C60.9936 17.9852 60.393 15.3122 59.0877 13.0499L57.3554 14.0494ZM58.5243 12.5966C48.8847 9.53419 43.0873 10.4353 39.3989 11.0146L39.7092 12.9904C43.2361 12.4364 48.6887 11.5704 57.9188 14.5027L58.5243 12.5966ZM39.3989 11.0146C38.954 11.0845 38.5527 11.1475 38.18 11.198L38.4487 13.1799C38.8462 13.126 39.2692 13.0595 39.7092 12.9904L39.3989 11.0146Z" fill="black" mask="url(#path-3-inside-1_542_377)"/>
</g>
</mask>
<g mask="url(#mask0_542_377)">
<g id="Group 1000003475">
<path id="Ellipse 235" d="M59.1703 20.3563C58.3851 26.3524 52.7134 30.5824 46.4715 29.765C40.2296 28.9476 35.8384 23.3998 36.6236 17.4038C37.4088 11.4077 43.0804 7.1777 49.3224 7.9951C55.5643 8.81249 59.9555 14.3603 59.1703 20.3563Z" fill="#FFFF22" stroke="black"/>
<path id="Ellipse 235_2" d="M55.3297 19.2103C54.7731 23.4604 50.7505 26.4667 46.3141 25.8857C41.8777 25.3048 38.7648 21.364 39.3214 17.1139C39.878 12.8638 43.9006 9.85749 48.337 10.4384C52.7734 11.0194 55.8863 14.9602 55.3297 19.2103Z" fill="#4FFF34" stroke="black"/>
<path id="Ellipse 235_3" d="M51.9782 19.4145C51.6503 21.9187 49.2767 23.7013 46.6458 23.3568C44.015 23.0123 42.1804 20.6785 42.5083 18.1744C42.8362 15.6702 45.2099 13.8876 47.8407 14.2321C50.4716 14.5766 52.3062 16.9103 51.9782 19.4145Z" fill="#FF53AA" stroke="black"/>
</g>
</g>
</g>
<g id="Mask group_2">
<mask id="mask1_542_377" style="mask-type:alpha" maskUnits="userSpaceOnUse" x="4" y="10" width="24" height="20">
<g id="Subtract_2">
<mask id="path-8-inside-2_542_377" fill="white">
<path fill-rule="evenodd" clip-rule="evenodd" d="M6.65376 11.5099C5.52329 13.0297 4.75396 14.8511 4.49054 16.8626C3.66745 23.148 8.09553 28.9106 14.3809 29.7337C20.6663 30.5568 26.4289 26.1287 27.252 19.8433C27.5838 17.3092 27.0621 14.86 25.9092 12.7853C16.7932 9.82968 11.3469 10.7366 7.85397 11.3183C7.42558 11.3896 7.02656 11.4561 6.65376 11.5099Z"/>
</mask>
<path fill-rule="evenodd" clip-rule="evenodd" d="M6.65376 11.5099C5.52329 13.0297 4.75396 14.8511 4.49054 16.8626C3.66745 23.148 8.09553 28.9106 14.3809 29.7337C20.6663 30.5568 26.4289 26.1287 27.252 19.8433C27.5838 17.3092 27.0621 14.86 25.9092 12.7853C16.7932 9.82968 11.3469 10.7366 7.85397 11.3183C7.42558 11.3896 7.02656 11.4561 6.65376 11.5099Z" fill="#FFFF22"/>
<path d="M6.65376 11.5099L6.51086 10.5202L6.09946 10.5796L5.85139 10.9131L6.65376 11.5099ZM25.9092 12.7853L26.7833 12.2996L26.5921 11.9555L26.2176 11.834L25.9092 12.7853ZM7.85397 11.3183L8.01823 12.3047L7.85397 11.3183ZM5.48207 16.9925C5.72276 15.1545 6.42491 13.4931 7.45614 12.1067L5.85139 10.9131C4.62167 12.5664 3.78515 14.5477 3.499 16.7328L5.48207 16.9925ZM14.5108 28.7421C8.77298 27.9908 4.73069 22.7302 5.48207 16.9925L3.499 16.7328C2.6042 23.5658 7.41807 29.8304 14.2511 30.7252L14.5108 28.7421ZM26.2605 19.7134C25.5091 25.4512 20.2486 29.4935 14.5108 28.7421L14.2511 30.7252C21.0841 31.62 27.3487 26.8061 28.2435 19.9731L26.2605 19.7134ZM25.0351 13.271C26.0875 15.1648 26.5636 17.3989 26.2605 19.7134L28.2435 19.9731C28.6041 17.2194 28.0368 14.5552 26.7833 12.2996L25.0351 13.271ZM26.2176 11.834C16.8901 8.80987 11.2655 9.73642 7.68971 10.3319L8.01823 12.3047C11.4284 11.7368 16.6962 10.8495 25.6008 13.7365L26.2176 11.834ZM7.68971 10.3319C7.25878 10.4036 6.87094 10.4682 6.51086 10.5202L6.79667 12.4996C7.18219 12.444 7.59237 12.3756 8.01823 12.3047L7.68971 10.3319Z" fill="black" mask="url(#path-8-inside-2_542_377)"/>
</g>
</mask>
<g mask="url(#mask1_542_377)">
<g id="Group 1000003475_2">
<circle id="Ellipse 235_4" cx="15.897" cy="18.1566" r="10.9779" transform="rotate(7.46058 15.897 18.1566)" fill="#FFFF22" stroke="black"/>
<circle id="Ellipse 235_5" cx="15.3473" cy="17.4414" r="7.78959" transform="rotate(7.46058 15.3473 17.4414)" fill="#4FFF34" stroke="black"/>
<circle id="Ellipse 235_6" cx="15.2647" cy="18.0737" r="4.60129" transform="rotate(7.46058 15.2647 18.0737)" fill="#FF53AA" stroke="black"/>
</g>
</g>
</g>
<path id="Vector 3410" d="M31.5002 13.5C36.3336 12.1667 47.5002 10.0001 64.0002 15" stroke="black" stroke-linecap="round"/>
<path id="Vector 3410_2" d="M31.2422 13.4231C18.0812 10.098 6.88591 10.853 1.50037 12" stroke="black" stroke-linecap="round"/>
</g>
</svg>
