<svg width="65" height="35" viewBox="0 0 65 35" fill="none" xmlns="http://www.w3.org/2000/svg">
<g id="Group 4">
<circle id="Ellipse 1" cx="17.2603" cy="17.2599" r="16.7599" fill="white" stroke="black"/>
<circle id="Ellipse 1_2" cx="47.7406" cy="17.2599" r="16.7599" fill="white" stroke="black"/>
<path id="Ellipse 2" d="M47.0004 29.9475C53.0755 29.9475 58.0004 25.0226 58.0004 18.9475C58.0004 16.7091 57.3318 14.6269 56.1835 12.8897C52.5168 12.3566 43.7835 11.5062 38.1835 12.369C36.8123 14.2037 36.0004 16.4808 36.0004 18.9475C36.0004 25.0226 40.9252 29.9475 47.0004 29.9475Z" fill="#0A0707"/>
<path id="Ellipse 2_2" d="M14.8173 29C20.8924 29 25.8173 24.0751 25.8173 18C25.8173 15.7616 25.1487 13.6794 24.0004 11.9422C20.3337 11.4091 11.6004 10.5587 6.00037 11.4215C4.62919 13.2562 3.81726 15.5333 3.81726 18C3.81726 24.0751 8.74213 29 14.8173 29Z" fill="#0A0707"/>
<path id="Vector 3410" d="M31.5004 13.5C36.3337 12.1667 49.2004 11 64.0004 15" stroke="black" stroke-linecap="round"/>
<path id="Vector 3410_2" d="M31.2424 13.423C18.0814 10.098 6.88604 10.853 1.50049 12" stroke="black" stroke-linecap="round"/>
</g>
</svg>
