<svg width="505" height="321" viewBox="0 0 505 321" fill="none" xmlns="http://www.w3.org/2000/svg">
<path d="M452.806 309.231C421.838 327.298 149.37 316.852 81.4765 301.702C69.7349 299.082 60.0805 295.177 52.1719 290.443C40.0191 283.169 31.9887 273.937 26.8422 264.404C20.6502 252.934 18.6328 241.026 18.6328 231.564C4.04422 208.559 -12.589 151.885 22.7563 88.9315C47.2972 45.2214 104.559 32.9825 128.516 34.7309C136.306 21.9093 171.521 -2.5684 250.052 2.09402C328.582 6.75643 359.901 32.7883 365.745 45.2214C405.477 45.6099 487.865 61.5398 499.551 122.151C511.237 182.763 489.228 236.38 476.763 255.613C479.1 267.463 477.581 294.777 452.806 309.231Z" fill="white" stroke="black" stroke-width="3"/>
</svg>
