<svg width="481" height="362" viewBox="0 0 481 362" fill="none" xmlns="http://www.w3.org/2000/svg">
<path d="M4.80242 94.2139C8.93738 49.7711 42.9553 16.2336 87.3588 11.2085C121.14 7.38565 167.23 3.72753 226.686 2.24273C292.723 0.593591 347.238 4.59965 387.199 9.49738C433.335 15.1518 467.743 51.5957 473.002 97.8512C476.049 124.659 478.625 155.527 478.998 185.314C479.231 203.946 478.379 222.726 476.946 240.527C472.17 299.828 418.331 339.959 358.489 339.872C328.23 339.827 294.954 340.56 263.781 342.896C234.062 345.123 197.118 351.021 160.869 357.945C85.3513 372.37 11.9503 318.778 6.86568 242.171C5.7723 225.698 4.62488 209.008 3.44994 192.757C0.828998 156.504 2.18514 122.345 4.80242 94.2139Z" fill="white" stroke="black" stroke-width="3"/>
</svg>
